<?xml version="1.0" encoding="UTF-8"?>
<svg width="16px" height="16px" viewBox="0 0 16 16" version="1.1" xmlns="http://www.w3.org/2000/svg" xmlns:xlink="http://www.w3.org/1999/xlink">
    <!-- Generator: Sketch 50.2 (55047) - http://www.bohemiancoding.com/sketch -->
    <title>icons/system/light/dollar/ic-dollar</title>
    <desc>Created with Sketch.</desc>
    <defs></defs>
    <g id="icons/system/light/dollar/ic-dollar" stroke="none" stroke-width="1" fill="none" fill-rule="evenodd">
        <g>
            <rect id="BG" x="0" y="0" width="16" height="16"></rect>
            <path d="M9.80773362,10.3178947 C9.80773362,9.93052438 9.66917432,9.60421185 9.39205156,9.33894737 C9.1149288,9.07368288 8.64769394,8.83368528 7.99033298,8.61894737 C7.07518339,8.34526179 6.40816536,7.98842325 5.98925886,7.54842105 C5.57035236,7.10841885 5.36090226,6.54947707 5.36090226,5.87157895 C5.36090226,5.18104918 5.56605595,4.61473905 5.9763695,4.17263158 C6.38668304,3.73052411 6.95058718,3.46736884 7.66809882,3.38315789 L7.66809882,2 L8.62835661,2 L8.62835661,3.38947368 C9.35016473,3.48631627 9.91192066,3.78315541 10.3136412,4.28 C10.7153618,4.77684459 10.9162191,5.45683779 10.9162191,6.32 L9.73039742,6.32 C9.73039742,5.72631282 9.5864676,5.25473859 9.29860365,4.90526316 C9.0107397,4.55578773 8.62191437,4.38105263 8.132116,4.38105263 C7.62083525,4.38105263 7.22986172,4.51052502 6.95918367,4.76947368 C6.68850563,5.02842235 6.55316864,5.38947137 6.55316864,5.85263158 C6.55316864,6.28210741 6.69602435,6.62420925 6.98174006,6.87894737 C7.26745578,7.13368548 7.73791294,7.36526212 8.39312567,7.57368421 C9.0483384,7.78210631 9.55961148,8.01157769 9.92696026,8.26210526 C10.294309,8.51263283 10.564983,8.80420886 10.7389903,9.13684211 C10.9129976,9.46947535 11,9.85894514 11,10.3052632 C11,11.0168457 10.7819571,11.5894715 10.3458647,12.0231579 C9.90977226,12.4568443 9.29860758,12.7136838 8.51235231,12.7936842 L8.51235231,14 L7.55853921,14 L7.55853921,12.7936842 C6.7593945,12.7221049 6.13319238,12.4431603 5.67991407,11.9568421 C5.22663576,11.4705239 5,10.8105305 5,9.97684211 L6.19226638,9.97684211 C6.19226638,10.5621082 6.34908544,11.01263 6.66272825,11.3284211 C6.97637106,11.6442121 7.42104975,11.8021053 7.99677766,11.8021053 C8.55961613,11.8021053 9.00214662,11.669475 9.32438238,11.4042105 C9.64661815,11.138946 9.80773362,10.7768444 9.80773362,10.3178947 Z" id="text" fill="#B0B3BF"></path>
        </g>
    </g>
</svg>