<?xml version="1.0" encoding="UTF-8"?>
<svg width="32px" height="32px" viewBox="0 0 32 32" version="1.1" xmlns="http://www.w3.org/2000/svg" xmlns:xlink="http://www.w3.org/1999/xlink">
    <!-- Generator: Sketch 50.2 (55047) - http://www.bohemiancoding.com/sketch -->
    <title>icons/system/light/hide-password/ic-hide-password</title>
    <desc>Created with Sketch.</desc>
    <defs></defs>
    <g id="icons/system/light/hide-password/ic-hide-password" stroke="none" stroke-width="1" fill="none" fill-rule="evenodd">
        <g>
            <rect id="Box" x="0" y="0" width="32" height="32"></rect>
            <path d="M13.1357807,21.4855396 L13.8116484,20.8096719 C14.5414551,21.027784 15.2725002,21.1428571 16,21.1428571 C18.1942242,21.1428571 20.4207008,20.0960414 22.5481708,18.3325986 C23.3061508,17.7043137 23.9960225,17.0295134 24.602495,16.3553594 C24.7136617,16.2317869 24.8176425,16.1130477 24.9141767,16 C24.8176425,15.8869523 24.7136617,15.7682131 24.602495,15.6446406 C23.9960225,14.9704866 23.3061508,14.2956863 22.5481708,13.6674014 C22.2507742,13.4208917 21.9514429,13.1883856 21.6505354,12.970785 L22.257552,12.3637684 C24.5393794,14.0425676 26,16 26,16 C26,16 21.5228475,22 16,22 C15.0045947,22 14.0431582,21.8050941 13.1357807,21.4855396 Z M10.3297654,20.0489143 C7.71425383,18.2973359 6,16 6,16 C6,16 10.4771525,10 16,10 C17.2621939,10 18.4697703,10.3133843 19.5817686,10.796911 L18.9310458,11.4476338 C17.9553343,11.0636142 16.9744865,10.8571429 16,10.8571429 C13.8057758,10.8571429 11.5792992,11.9039586 9.45182917,13.6674014 C8.69384917,14.2956863 8.0039775,14.9704866 7.397505,15.6446406 C7.28633833,15.7682131 7.1823575,15.8869523 7.08582333,16 C7.1823575,16.1130477 7.28633833,16.2317869 7.397505,16.3553594 C8.0039775,17.0295134 8.69384917,17.7043137 9.45182917,18.3325986 C9.9437516,18.7403491 10.4409674,19.1097855 10.9418538,19.4368258 L10.3297654,20.0489143 Z M14.9250015,19.6963189 L15.6435049,18.9778155 C15.760344,18.9924609 15.879316,19 16,19 C17.6108308,19 18.9166667,17.6568546 18.9166667,16 C18.9166667,15.9047045 18.9123469,15.8104468 18.9038977,15.7174227 L19.622449,14.9988713 C19.7056409,15.3181348 19.75,15.6537391 19.75,16 C19.75,18.1302409 18.0710675,19.8571429 16,19.8571429 C15.626388,19.8571429 15.265537,19.8009448 14.9250015,19.6963189 Z M12.6478443,17.7308353 C12.3933118,17.210324 12.25,16.6223763 12.25,16 C12.25,13.8697591 13.9289325,12.1428571 16,12.1428571 C16.6427301,12.1428571 17.2476939,12.3091741 17.776431,12.6022487 L17.1406083,13.2380713 C16.7902467,13.0848008 16.4047514,13 16,13 C14.3891692,13 13.0833333,14.3431454 13.0833333,16 C13.0833333,16.386405 13.1543574,16.7557475 13.2837102,17.0949695 L12.6478443,17.7308353 Z" id="Combined-Shape" fill="#B0B3BF" fill-rule="nonzero"></path>
            <rect id="Shape" fill="#B0B3BF" transform="translate(16.000000, 16.500000) rotate(-45.000000) translate(-16.000000, -16.500000) " x="6" y="16" width="20" height="1"></rect>
        </g>
    </g>
</svg>