<?xml version="1.0" encoding="UTF-8"?>
<svg width="32px" height="32px" viewBox="0 0 32 32" version="1.1" xmlns="http://www.w3.org/2000/svg" xmlns:xlink="http://www.w3.org/1999/xlink">
    <!-- Generator: Sketch 50.2 (55047) - http://www.bohemiancoding.com/sketch -->
    <title>icons/system/light/see-password/ic-see-password</title>
    <desc>Created with Sketch.</desc>
    <defs></defs>
    <g id="icons/system/light/see-password/ic-see-password" stroke="none" stroke-width="1" fill="none" fill-rule="evenodd">
        <g>
            <rect id="Box" x="0" y="0" width="32" height="32"></rect>
            <path d="M24.602495,15.6446406 C23.9960225,14.9704866 23.3061508,14.2956863 22.5481708,13.6674014 C20.4207008,11.9039586 18.1942242,10.8571429 16,10.8571429 C13.8057758,10.8571429 11.5792992,11.9039586 9.45182917,13.6674014 C8.69384917,14.2956863 8.0039775,14.9704866 7.397505,15.6446406 C7.28633833,15.7682131 7.1823575,15.8869523 7.08582333,16 C7.1823575,16.1130477 7.28633833,16.2317869 7.397505,16.3553594 C8.0039775,17.0295134 8.69384917,17.7043137 9.45182917,18.3325986 C11.5792992,20.0960414 13.8057758,21.1428571 16,21.1428571 C18.1942242,21.1428571 20.4207008,20.0960414 22.5481708,18.3325986 C23.3061508,17.7043137 23.9960225,17.0295134 24.602495,16.3553594 C24.7136617,16.2317869 24.8176425,16.1130477 24.9141767,16 C24.8176425,15.8869523 24.7136617,15.7682131 24.602495,15.6446406 Z M16,22 C10.4771525,22 6,16 6,16 C6,16 10.4771525,10 16,10 C21.5228475,10 26,16 26,16 C26,16 21.5228475,22 16,22 Z M16,19.8571429 C18.0710675,19.8571429 19.75,18.1302409 19.75,16 C19.75,13.8697591 18.0710675,12.1428571 16,12.1428571 C13.9289325,12.1428571 12.25,13.8697591 12.25,16 C12.25,18.1302409 13.9289325,19.8571429 16,19.8571429 Z M16,19 C14.3891692,19 13.0833333,17.6568546 13.0833333,16 C13.0833333,14.3431454 14.3891692,13 16,13 C17.6108308,13 18.9166667,14.3431454 18.9166667,16 C18.9166667,17.6568546 17.6108308,19 16,19 Z" id="Shape" fill="#B0B3BF" fill-rule="nonzero"></path>
        </g>
    </g>
</svg>